<?xml version="1.0" encoding="UTF-8"?>
<svg xmlns="http://www.w3.org/2000/svg" xmlns:xlink="http://www.w3.org/1999/xlink" viewBox="0 0 30 30" width="30px" height="30px">
<g id="surface2348265">
<path style=" stroke:none;fill-rule:nonzero;fill:rgb(98.823529%,63.921571%,6.666667%);fill-opacity:1;" d="M 7.199219 14.042969 L 7.199219 6.234375 L 7.128906 6.179688 L 7.121094 6.179688 L 5.484375 4.96875 C 4.480469 4.222656 3.054688 4.261719 2.164062 5.136719 C 1.570312 5.722656 1.199219 6.539062 1.199219 7.445312 L 1.199219 9.605469 Z M 22.800781 14.035156 L 22.800781 14.042969 L 28.800781 9.605469 L 28.800781 7.445312 C 28.800781 6.550781 28.441406 5.734375 27.851562 5.148438 C 26.976562 4.273438 25.59375 4.171875 24.597656 4.90625 L 22.871094 6.179688 L 22.800781 6.234375 Z M 8.398438 14.921875 L 14.644531 19.535156 C 14.855469 19.691406 15.144531 19.691406 15.355469 19.535156 L 21.601562 14.921875 L 21.601562 7.121094 L 15 12 L 8.398438 7.121094 Z M 22.800781 15.535156 L 22.800781 24.601562 C 22.800781 24.929688 23.070312 25.199219 23.398438 25.199219 L 27.300781 25.199219 C 28.128906 25.199219 28.800781 24.527344 28.800781 23.699219 L 28.800781 11.097656 Z M 7.199219 15.535156 L 1.199219 11.097656 L 1.199219 23.699219 C 1.199219 24.527344 1.871094 25.199219 2.699219 25.199219 L 6.601562 25.199219 C 6.929688 25.199219 7.199219 24.929688 7.199219 24.601562 Z M 7.199219 15.535156 "/>
</g>
</svg>
